<svg xmlns="http://www.w3.org/2000/svg" viewBox="0 0 640 360" width="640" height="360" role="img" aria-label="preview">
<defs>
<linearGradient id="bg" x1="0" y1="0" x2="1" y2="1"><stop offset="0" stop-color="#080509"/><stop offset="0.55" stop-color="#42101f"/><stop offset="1" stop-color="#080509"/></linearGradient>
<linearGradient id="glow" x1="0" y1="1" x2="1" y2="0"><stop offset="0" stop-color="#ff5464" stop-opacity="0"/><stop offset="1" stop-color="#ff5464" stop-opacity="0.55"/></linearGradient>
<linearGradient id="fade" x1="0" y1="0" x2="0" y2="1"><stop offset="0.3" stop-color="#080509" stop-opacity="0"/><stop offset="1" stop-color="#080509" stop-opacity="0.94"/></linearGradient>
<pattern id="grid" width="32" height="32" patternUnits="userSpaceOnUse"><path d="M32 0H0V32" fill="none" stroke="#ff5464" stroke-opacity="0.12" stroke-width="1"/></pattern>
</defs>
<rect width="640" height="360" fill="url(#bg)"/>
<rect width="640" height="360" fill="url(#grid)"/>
<rect x="477" y="-120" width="74" height="600" fill="#ff5464" fill-opacity="0.076" transform="rotate(25 320.0 180.0)"/>
<rect x="-33" y="-120" width="71" height="600" fill="#ff5464" fill-opacity="0.131" transform="rotate(25 320.0 180.0)"/>
<rect x="207" y="-120" width="44" height="600" fill="#ff5464" fill-opacity="0.157" transform="rotate(25 320.0 180.0)"/>
<rect x="110" y="-120" width="56" height="600" fill="#ff5464" fill-opacity="0.155" transform="rotate(25 320.0 180.0)"/>
<rect x="318" y="-120" width="57" height="600" fill="#ff5464" fill-opacity="0.059" transform="rotate(25 320.0 180.0)"/>
<rect x="301" y="58" width="50" height="50" rx="6" fill="#ff5464" fill-opacity="0.095" stroke="#ff5464" stroke-opacity="0.315" stroke-width="1.5" transform="rotate(0 326.0 83.0)"/>
<rect x="358" y="82" width="70" height="70" rx="6" fill="#ff5464" fill-opacity="0.09" stroke="#ff5464" stroke-opacity="0.31" stroke-width="1.5" transform="rotate(-9 393.0 117.0)"/>
<rect x="542" y="138" width="27" height="27" rx="6" fill="#ff5464" fill-opacity="0.146" stroke="#ff5464" stroke-opacity="0.366" stroke-width="1.5" transform="rotate(-12 555.5 151.5)"/>
<rect x="34" y="67" width="54" height="54" rx="6" fill="#ff5464" fill-opacity="0.197" stroke="#ff5464" stroke-opacity="0.417" stroke-width="1.5" transform="rotate(0 61.0 94.0)"/>
<rect x="410" y="145" width="27" height="27" rx="6" fill="#ff5464" fill-opacity="0.144" stroke="#ff5464" stroke-opacity="0.364" stroke-width="1.5" transform="rotate(5 423.5 158.5)"/>
<rect x="194" y="116" width="33" height="33" rx="6" fill="#ff5464" fill-opacity="0.194" stroke="#ff5464" stroke-opacity="0.414" stroke-width="1.5" transform="rotate(12 210.5 132.5)"/>
<rect x="468" y="160" width="27" height="27" rx="6" fill="#ff5464" fill-opacity="0.119" stroke="#ff5464" stroke-opacity="0.339" stroke-width="1.5" transform="rotate(9 481.5 173.5)"/>
<path d="M139.4 46.1 A140 140 0 0 1 402.6 141.9" fill="none" stroke="url(#glow)" stroke-width="3" stroke-linecap="round"/>
<rect width="640" height="360" fill="url(#fade)"/>
<g opacity="0.22"><polygon points="253.25,120.00 278.21,120.00 260.50,191.04 293.14,191.04 286.91,216.00 229.31,216.00" fill="#ffffff"/><polygon points="322.37,120.00 347.33,120.00 336.80,162.24 378.05,120.00 410.69,120.00 359.84,169.92 389.63,216.00 356.03,216.00 333.45,175.68 323.39,216.00 298.43,216.00" fill="#ffffff"/></g>
<text x="320" y="244" text-anchor="middle" font-family="Segoe UI, Inter, sans-serif" font-size="11" font-weight="600" letter-spacing="0.34em" fill="#ff5464" fill-opacity="0.55">PREVIEW</text>
</svg>