<svg xmlns="http://www.w3.org/2000/svg" viewBox="0 0 640 360" width="640" height="360" role="img" aria-label="preview">
<defs>
<linearGradient id="bg" x1="0" y1="0" x2="1" y2="1"><stop offset="0" stop-color="#08060a"/><stop offset="0.55" stop-color="#4a0d18"/><stop offset="1" stop-color="#08060a"/></linearGradient>
<linearGradient id="glow" x1="0" y1="1" x2="1" y2="0"><stop offset="0" stop-color="#ff5464" stop-opacity="0"/><stop offset="1" stop-color="#ff5464" stop-opacity="0.55"/></linearGradient>
<linearGradient id="fade" x1="0" y1="0" x2="0" y2="1"><stop offset="0.3" stop-color="#08060a" stop-opacity="0"/><stop offset="1" stop-color="#08060a" stop-opacity="0.94"/></linearGradient>
<pattern id="grid" width="32" height="32" patternUnits="userSpaceOnUse"><path d="M32 0H0V32" fill="none" stroke="#ff5464" stroke-opacity="0.12" stroke-width="1"/></pattern>
</defs>
<rect width="640" height="360" fill="url(#bg)"/>
<rect width="640" height="360" fill="url(#grid)"/>
<rect x="-82" y="-120" width="61" height="600" fill="#ff5464" fill-opacity="0.139" transform="rotate(15 320.0 180.0)"/>
<rect x="-128" y="-120" width="56" height="600" fill="#ff5464" fill-opacity="0.126" transform="rotate(15 320.0 180.0)"/>
<rect x="-29" y="-120" width="77" height="600" fill="#ff5464" fill-opacity="0.093" transform="rotate(15 320.0 180.0)"/>
<rect x="298" y="-120" width="49" height="600" fill="#ff5464" fill-opacity="0.092" transform="rotate(15 320.0 180.0)"/>
<rect x="46" y="-120" width="70" height="600" fill="#ff5464" fill-opacity="0.099" transform="rotate(15 320.0 180.0)"/>
<rect x="430" y="174" width="39" height="39" rx="6" fill="#ff5464" fill-opacity="0.22" stroke="#ff5464" stroke-opacity="0.44" stroke-width="1.5" transform="rotate(-7 449.5 193.5)"/>
<rect x="65" y="162" width="65" height="65" rx="6" fill="#ff5464" fill-opacity="0.18" stroke="#ff5464" stroke-opacity="0.4" stroke-width="1.5" transform="rotate(7 97.5 194.5)"/>
<rect x="432" y="191" width="57" height="57" rx="6" fill="#ff5464" fill-opacity="0.187" stroke="#ff5464" stroke-opacity="0.407" stroke-width="1.5" transform="rotate(-10 460.5 219.5)"/>
<rect x="549" y="119" width="35" height="35" rx="6" fill="#ff5464" fill-opacity="0.173" stroke="#ff5464" stroke-opacity="0.393" stroke-width="1.5" transform="rotate(6 566.5 136.5)"/>
<rect x="431" y="32" width="38" height="38" rx="6" fill="#ff5464" fill-opacity="0.163" stroke="#ff5464" stroke-opacity="0.383" stroke-width="1.5" transform="rotate(18 450.0 51.0)"/>
<rect x="536" y="173" width="68" height="68" rx="6" fill="#ff5464" fill-opacity="0.101" stroke="#ff5464" stroke-opacity="0.321" stroke-width="1.5" transform="rotate(-16 570.0 207.0)"/>
<rect x="406" y="196" width="71" height="71" rx="6" fill="#ff5464" fill-opacity="0.097" stroke="#ff5464" stroke-opacity="0.317" stroke-width="1.5" transform="rotate(13 441.5 231.5)"/>
<path d="M23.2 139.8 A103 103 0 0 1 216.8 210.2" fill="none" stroke="url(#glow)" stroke-width="3" stroke-linecap="round"/>
<rect width="640" height="360" fill="url(#fade)"/>
<g opacity="0.22"><polygon points="253.25,120.00 278.21,120.00 260.50,191.04 293.14,191.04 286.91,216.00 229.31,216.00" fill="#ffffff"/><polygon points="322.37,120.00 347.33,120.00 336.80,162.24 378.05,120.00 410.69,120.00 359.84,169.92 389.63,216.00 356.03,216.00 333.45,175.68 323.39,216.00 298.43,216.00" fill="#ffffff"/></g>
<text x="320" y="244" text-anchor="middle" font-family="Segoe UI, Inter, sans-serif" font-size="11" font-weight="600" letter-spacing="0.34em" fill="#ff5464" fill-opacity="0.55">PREVIEW</text>
</svg>