<svg xmlns="http://www.w3.org/2000/svg" viewBox="0 0 640 360" width="640" height="360" role="img" aria-label="Cobalt Dream preview">
<defs>
<linearGradient id="bg" x1="0" y1="0" x2="1" y2="1"><stop offset="0" stop-color="#0b1233"/><stop offset="0.55" stop-color="#233a94"/><stop offset="1" stop-color="#0b1233"/></linearGradient>
<linearGradient id="glow" x1="0" y1="1" x2="1" y2="0"><stop offset="0" stop-color="#8ab4ff" stop-opacity="0"/><stop offset="1" stop-color="#8ab4ff" stop-opacity="0.55"/></linearGradient>
<linearGradient id="fade" x1="0" y1="0" x2="0" y2="1"><stop offset="0.35" stop-color="#0b1233" stop-opacity="0"/><stop offset="1" stop-color="#0b1233" stop-opacity="0.92"/></linearGradient>
<pattern id="grid" width="32" height="32" patternUnits="userSpaceOnUse"><path d="M32 0H0V32" fill="none" stroke="#8ab4ff" stroke-opacity="0.13" stroke-width="1"/></pattern>
</defs>
<rect width="640" height="360" fill="url(#bg)"/>
<rect width="640" height="360" fill="url(#grid)"/>
<rect x="158" y="-120" width="78" height="600" fill="#8ab4ff" fill-opacity="0.147" transform="rotate(45 320.0 180.0)"/>
<rect x="15" y="-120" width="76" height="600" fill="#8ab4ff" fill-opacity="0.08" transform="rotate(45 320.0 180.0)"/>
<rect x="227" y="-120" width="50" height="600" fill="#8ab4ff" fill-opacity="0.058" transform="rotate(45 320.0 180.0)"/>
<rect x="473" y="-120" width="30" height="600" fill="#8ab4ff" fill-opacity="0.098" transform="rotate(45 320.0 180.0)"/>
<rect x="214" y="-120" width="81" height="600" fill="#8ab4ff" fill-opacity="0.089" transform="rotate(45 320.0 180.0)"/>
<rect x="449" y="156" width="32" height="32" rx="6" fill="#8ab4ff" fill-opacity="0.203" stroke="#8ab4ff" stroke-opacity="0.403" stroke-width="1.5" transform="rotate(-10 465.0 172.0)"/>
<rect x="343" y="209" width="53" height="53" rx="6" fill="#8ab4ff" fill-opacity="0.166" stroke="#8ab4ff" stroke-opacity="0.366" stroke-width="1.5" transform="rotate(-16 369.5 235.5)"/>
<rect x="39" y="51" width="37" height="37" rx="6" fill="#8ab4ff" fill-opacity="0.222" stroke="#8ab4ff" stroke-opacity="0.422" stroke-width="1.5" transform="rotate(9 57.5 69.5)"/>
<rect x="366" y="188" width="31" height="31" rx="6" fill="#8ab4ff" fill-opacity="0.195" stroke="#8ab4ff" stroke-opacity="0.395" stroke-width="1.5" transform="rotate(-10 381.5 203.5)"/>
<rect x="217" y="138" width="57" height="57" rx="6" fill="#8ab4ff" fill-opacity="0.217" stroke="#8ab4ff" stroke-opacity="0.417" stroke-width="1.5" transform="rotate(-16 245.5 166.5)"/>
<rect x="367" y="151" width="58" height="58" rx="6" fill="#8ab4ff" fill-opacity="0.165" stroke="#8ab4ff" stroke-opacity="0.365" stroke-width="1.5" transform="rotate(18 396.0 180.0)"/>
<rect x="46" y="54" width="72" height="72" rx="6" fill="#8ab4ff" fill-opacity="0.1" stroke="#8ab4ff" stroke-opacity="0.3" stroke-width="1.5" transform="rotate(-11 82.0 90.0)"/>
<path d="M294.5 128.2 A125 125 0 0 1 529.5 213.8" fill="none" stroke="url(#glow)" stroke-width="3" stroke-linecap="round"/>
<rect width="640" height="360" fill="url(#fade)"/>
<text x="320" y="176" text-anchor="middle" font-family="Segoe UI, Inter, sans-serif" font-size="30" font-weight="800" letter-spacing="0.3em" fill="#eaf3ff" fill-opacity="0.16">LEAKESTAN</text>
<text x="320" y="202" text-anchor="middle" font-family="Segoe UI, Inter, sans-serif" font-size="11" font-weight="600" letter-spacing="0.34em" fill="#8ab4ff" fill-opacity="0.5">PREVIEW</text>
</svg>