<svg xmlns="http://www.w3.org/2000/svg" viewBox="0 0 640 360" width="640" height="360" role="img" aria-label="preview">
<defs>
<linearGradient id="bg" x1="0" y1="0" x2="1" y2="1"><stop offset="0" stop-color="#08060a"/><stop offset="0.55" stop-color="#4a0d18"/><stop offset="1" stop-color="#08060a"/></linearGradient>
<linearGradient id="glow" x1="0" y1="1" x2="1" y2="0"><stop offset="0" stop-color="#ff5464" stop-opacity="0"/><stop offset="1" stop-color="#ff5464" stop-opacity="0.55"/></linearGradient>
<linearGradient id="fade" x1="0" y1="0" x2="0" y2="1"><stop offset="0.3" stop-color="#08060a" stop-opacity="0"/><stop offset="1" stop-color="#08060a" stop-opacity="0.94"/></linearGradient>
<pattern id="grid" width="32" height="32" patternUnits="userSpaceOnUse"><path d="M32 0H0V32" fill="none" stroke="#ff5464" stroke-opacity="0.12" stroke-width="1"/></pattern>
</defs>
<rect width="640" height="360" fill="url(#bg)"/>
<rect width="640" height="360" fill="url(#grid)"/>
<rect x="233" y="-120" width="85" height="600" fill="#ff5464" fill-opacity="0.154" transform="rotate(15 320.0 180.0)"/>
<rect x="440" y="-120" width="36" height="600" fill="#ff5464" fill-opacity="0.149" transform="rotate(15 320.0 180.0)"/>
<rect x="35" y="-120" width="84" height="600" fill="#ff5464" fill-opacity="0.105" transform="rotate(15 320.0 180.0)"/>
<rect x="171" y="-120" width="79" height="600" fill="#ff5464" fill-opacity="0.155" transform="rotate(15 320.0 180.0)"/>
<rect x="-95" y="-120" width="77" height="600" fill="#ff5464" fill-opacity="0.152" transform="rotate(15 320.0 180.0)"/>
<rect x="365" y="148" width="58" height="58" rx="6" fill="#ff5464" fill-opacity="0.181" stroke="#ff5464" stroke-opacity="0.401" stroke-width="1.5" transform="rotate(9 394.0 177.0)"/>
<rect x="70" y="173" width="27" height="27" rx="6" fill="#ff5464" fill-opacity="0.207" stroke="#ff5464" stroke-opacity="0.427" stroke-width="1.5" transform="rotate(13 83.5 186.5)"/>
<rect x="202" y="92" width="55" height="55" rx="6" fill="#ff5464" fill-opacity="0.146" stroke="#ff5464" stroke-opacity="0.366" stroke-width="1.5" transform="rotate(-10 229.5 119.5)"/>
<rect x="301" y="65" width="61" height="61" rx="6" fill="#ff5464" fill-opacity="0.117" stroke="#ff5464" stroke-opacity="0.337" stroke-width="1.5" transform="rotate(17 331.5 95.5)"/>
<rect x="241" y="42" width="65" height="65" rx="6" fill="#ff5464" fill-opacity="0.147" stroke="#ff5464" stroke-opacity="0.367" stroke-width="1.5" transform="rotate(-5 273.5 74.5)"/>
<rect x="246" y="150" width="53" height="53" rx="6" fill="#ff5464" fill-opacity="0.206" stroke="#ff5464" stroke-opacity="0.426" stroke-width="1.5" transform="rotate(18 272.5 176.5)"/>
<rect x="320" y="207" width="42" height="42" rx="6" fill="#ff5464" fill-opacity="0.169" stroke="#ff5464" stroke-opacity="0.389" stroke-width="1.5" transform="rotate(-10 341.0 228.0)"/>
<path d="M322.0 124.5 A133 133 0 0 1 572.0 215.5" fill="none" stroke="url(#glow)" stroke-width="3" stroke-linecap="round"/>
<rect width="640" height="360" fill="url(#fade)"/>
<g opacity="0.22"><polygon points="253.25,120.00 278.21,120.00 260.50,191.04 293.14,191.04 286.91,216.00 229.31,216.00" fill="#ffffff"/><polygon points="322.37,120.00 347.33,120.00 336.80,162.24 378.05,120.00 410.69,120.00 359.84,169.92 389.63,216.00 356.03,216.00 333.45,175.68 323.39,216.00 298.43,216.00" fill="#ffffff"/></g>
<text x="320" y="244" text-anchor="middle" font-family="Segoe UI, Inter, sans-serif" font-size="11" font-weight="600" letter-spacing="0.34em" fill="#ff5464" fill-opacity="0.55">PREVIEW</text>
</svg>