<svg xmlns="http://www.w3.org/2000/svg" viewBox="0 0 640 360" width="640" height="360" role="img" aria-label="Voltage preview">
<defs>
<linearGradient id="bg" x1="0" y1="0" x2="1" y2="1"><stop offset="0" stop-color="#0b1233"/><stop offset="0.55" stop-color="#233a94"/><stop offset="1" stop-color="#0b1233"/></linearGradient>
<linearGradient id="glow" x1="0" y1="1" x2="1" y2="0"><stop offset="0" stop-color="#8ab4ff" stop-opacity="0"/><stop offset="1" stop-color="#8ab4ff" stop-opacity="0.55"/></linearGradient>
<linearGradient id="fade" x1="0" y1="0" x2="0" y2="1"><stop offset="0.35" stop-color="#0b1233" stop-opacity="0"/><stop offset="1" stop-color="#0b1233" stop-opacity="0.92"/></linearGradient>
<pattern id="grid" width="32" height="32" patternUnits="userSpaceOnUse"><path d="M32 0H0V32" fill="none" stroke="#8ab4ff" stroke-opacity="0.13" stroke-width="1"/></pattern>
</defs>
<rect width="640" height="360" fill="url(#bg)"/>
<rect width="640" height="360" fill="url(#grid)"/>
<rect x="111" y="-120" width="33" height="600" fill="#8ab4ff" fill-opacity="0.074" transform="rotate(35 320.0 180.0)"/>
<rect x="-76" y="-120" width="52" height="600" fill="#8ab4ff" fill-opacity="0.111" transform="rotate(35 320.0 180.0)"/>
<rect x="-107" y="-120" width="32" height="600" fill="#8ab4ff" fill-opacity="0.088" transform="rotate(35 320.0 180.0)"/>
<rect x="372" y="-120" width="82" height="600" fill="#8ab4ff" fill-opacity="0.135" transform="rotate(35 320.0 180.0)"/>
<rect x="119" y="-120" width="30" height="600" fill="#8ab4ff" fill-opacity="0.051" transform="rotate(35 320.0 180.0)"/>
<rect x="216" y="159" width="49" height="49" rx="6" fill="#8ab4ff" fill-opacity="0.239" stroke="#8ab4ff" stroke-opacity="0.439" stroke-width="1.5" transform="rotate(16 240.5 183.5)"/>
<rect x="209" y="164" width="46" height="46" rx="6" fill="#8ab4ff" fill-opacity="0.199" stroke="#8ab4ff" stroke-opacity="0.399" stroke-width="1.5" transform="rotate(-11 232.0 187.0)"/>
<rect x="80" y="44" width="52" height="52" rx="6" fill="#8ab4ff" fill-opacity="0.221" stroke="#8ab4ff" stroke-opacity="0.421" stroke-width="1.5" transform="rotate(2 106.0 70.0)"/>
<rect x="425" y="231" width="38" height="38" rx="6" fill="#8ab4ff" fill-opacity="0.181" stroke="#8ab4ff" stroke-opacity="0.381" stroke-width="1.5" transform="rotate(16 444.0 250.0)"/>
<rect x="535" y="229" width="35" height="35" rx="6" fill="#8ab4ff" fill-opacity="0.198" stroke="#8ab4ff" stroke-opacity="0.398" stroke-width="1.5" transform="rotate(4 552.5 246.5)"/>
<rect x="459" y="178" width="74" height="74" rx="6" fill="#8ab4ff" fill-opacity="0.196" stroke="#8ab4ff" stroke-opacity="0.396" stroke-width="1.5" transform="rotate(10 496.0 215.0)"/>
<rect x="74" y="189" width="54" height="54" rx="6" fill="#8ab4ff" fill-opacity="0.139" stroke="#8ab4ff" stroke-opacity="0.339" stroke-width="1.5" transform="rotate(-18 101.0 216.0)"/>
<path d="M47.6 95.1 A143 143 0 0 1 316.4 192.9" fill="none" stroke="url(#glow)" stroke-width="3" stroke-linecap="round"/>
<rect width="640" height="360" fill="url(#fade)"/>
<text x="320" y="176" text-anchor="middle" font-family="Segoe UI, Inter, sans-serif" font-size="30" font-weight="800" letter-spacing="0.3em" fill="#eaf3ff" fill-opacity="0.16">LEAKESTAN</text>
<text x="320" y="202" text-anchor="middle" font-family="Segoe UI, Inter, sans-serif" font-size="11" font-weight="600" letter-spacing="0.34em" fill="#8ab4ff" fill-opacity="0.5">PREVIEW</text>
</svg>